<svg width="56" height="56" viewBox="0 0 56 56" fill="none" xmlns="http://www.w3.org/2000/svg">
<path d="M36.846 18.423C40.5105 18.423 44.025 19.8787 46.6163 22.47C49.2075 25.0612 50.6632 28.5757 50.6632 32.2402V48.3604H41.4517V32.2402C41.4517 31.0187 40.9665 29.8472 40.1027 28.9835C39.239 28.1197 38.0675 27.6345 36.846 27.6345C35.6245 27.6345 34.453 28.1197 33.5892 28.9835C32.7255 29.8472 32.2402 31.0187 32.2402 32.2402V48.3604H23.0287V32.2402C23.0287 28.5757 24.4845 25.0612 27.0757 22.47C29.6669 19.8787 33.1814 18.423 36.846 18.423Z" stroke="#3B3A34" stroke-width="4.60575" stroke-linecap="round" stroke-linejoin="round"/>
<path d="M13.8172 20.7258H4.60571V48.3604H13.8172V20.7258Z" stroke="#3B3A34" stroke-width="4.60575" stroke-linecap="round" stroke-linejoin="round"/>
<path d="M9.21147 13.8172C11.7552 13.8172 13.8172 11.7552 13.8172 9.21147C13.8172 6.66778 11.7552 4.60571 9.21147 4.60571C6.66778 4.60571 4.60571 6.66778 4.60571 9.21147C4.60571 11.7552 6.66778 13.8172 9.21147 13.8172Z" stroke="#3B3A34" stroke-width="4.60575" stroke-linecap="round" stroke-linejoin="round"/>
</svg>
