<svg width="102" height="102" viewBox="0 0 102 102" fill="none" xmlns="http://www.w3.org/2000/svg">
<path d="M51 29.75C51 25.2413 49.2089 20.9173 46.0208 17.7292C42.8327 14.5411 38.5087 12.75 34 12.75H8.5V76.5H38.25C41.6315 76.5 44.8745 77.8433 47.2656 80.2344C49.6567 82.6255 51 85.8685 51 89.25M51 29.75V89.25M51 29.75C51 25.2413 52.7911 20.9173 55.9792 17.7292C59.1673 14.5411 63.4913 12.75 68 12.75H93.5V76.5H63.75C60.3685 76.5 57.1255 77.8433 54.7344 80.2344C52.3433 82.6255 51 85.8685 51 89.25" stroke="#3B3A34" stroke-width="4" stroke-linecap="round" stroke-linejoin="round"/>
</svg>
