<svg width="56" height="56" viewBox="0 0 56 56" fill="none" xmlns="http://www.w3.org/2000/svg">
<g clip-path="url(#clip0_5_126)">
<path d="M20.7258 43.7547C9.21147 47.209 9.21147 37.9975 4.60571 36.8461M36.846 50.6633V41.7512C36.9324 40.6531 36.784 39.5492 36.4108 38.5129C36.0375 37.4765 35.448 36.5315 34.6813 35.7407C41.9123 34.9347 49.5118 32.1942 49.5118 19.6205C49.5112 16.4053 48.2745 13.3134 46.0575 10.9848C47.1073 8.17181 47.033 5.06256 45.8502 2.30291C45.8502 2.30291 43.1328 1.49691 36.846 5.71117C31.5678 4.28067 26.004 4.28067 20.7258 5.71117C14.439 1.49691 11.7216 2.30291 11.7216 2.30291C10.5388 5.06256 10.4646 8.17181 11.5143 10.9848C9.28084 13.3307 8.04281 16.4505 8.06003 19.6896C8.06003 32.1712 15.6595 34.9116 22.8906 35.8098C22.1329 36.5927 21.5486 37.5263 21.1756 38.55C20.8027 39.5737 20.6494 40.6644 20.7258 41.7512V50.6633" stroke="#3B3A34" stroke-width="4.60575" stroke-linecap="round" stroke-linejoin="round"/>
</g>
<defs>
<clipPath id="clip0_5_126">
<rect width="55.269" height="55.269" fill="white"/>
</clipPath>
</defs>
</svg>
